<svg width="186" height="67" viewBox="0 0 186 67" fill="none" xmlns="http://www.w3.org/2000/svg">
<g clip-path="url(#clip0_0_224)">
<path d="M82.7203 8C83.987 8 85.087 8.21333 86.0203 8.64C86.9536 9.05333 87.6736 9.65333 88.1803 10.44C88.687 11.2133 88.9403 12.1267 88.9403 13.18C88.9403 14.2333 88.687 15.1467 88.1803 15.92C87.6736 16.6933 86.9536 17.2933 86.0203 17.72C85.087 18.1333 83.987 18.34 82.7203 18.34H80.2803V22H76.3203V8H82.7203ZM82.4803 15.22C83.2936 15.22 83.907 15.0467 84.3203 14.7C84.7336 14.34 84.9403 13.8333 84.9403 13.18C84.9403 12.5267 84.7336 12.02 84.3203 11.66C83.907 11.3 83.2936 11.12 82.4803 11.12H80.2803V15.22H82.4803ZM94.8367 10.98C96.6367 10.98 98.0101 11.3933 98.9567 12.22C99.9034 13.0333 100.377 14.2867 100.377 15.98V22H96.8367V20.6C96.2901 21.6533 95.2234 22.18 93.6367 22.18C92.7967 22.18 92.0701 22.0333 91.4567 21.74C90.8434 21.4467 90.3767 21.0533 90.0567 20.56C89.7501 20.0533 89.5967 19.48 89.5967 18.84C89.5967 17.8133 89.9901 17.02 90.7767 16.46C91.5634 15.8867 92.7767 15.6 94.4167 15.6H96.5767C96.5101 14.4533 95.7434 13.88 94.2767 13.88C93.7567 13.88 93.2301 13.9667 92.6967 14.14C92.1634 14.3 91.7101 14.5267 91.3367 14.82L90.0567 12.24C90.6567 11.84 91.3834 11.5333 92.2367 11.32C93.1034 11.0933 93.9701 10.98 94.8367 10.98ZM94.6967 19.78C95.1367 19.78 95.5234 19.6733 95.8567 19.46C96.1901 19.2467 96.4301 18.9333 96.5767 18.52V17.58H94.9367C93.8301 17.58 93.2767 17.9467 93.2767 18.68C93.2767 19.0133 93.4034 19.28 93.6567 19.48C93.9101 19.68 94.2567 19.78 94.6967 19.78ZM109.363 12.12C110.416 12.12 111.329 12.3267 112.103 12.74C112.876 13.14 113.463 13.72 113.863 14.48C114.276 15.2267 114.483 16.1 114.483 17.1C114.483 18.1267 114.216 19.0333 113.683 19.82C113.163 20.5933 112.436 21.2 111.503 21.64C110.583 22.0667 109.543 22.28 108.383 22.28C106.476 22.28 104.956 21.6867 103.823 20.5C102.689 19.3133 102.123 17.5333 102.123 15.16C102.123 10.7067 104.096 8.10667 108.043 7.36L113.303 6.36L113.823 9.54L109.263 10.4C108.103 10.6133 107.249 10.96 106.703 11.44C106.169 11.9067 105.849 12.5867 105.743 13.48C106.716 12.5733 107.923 12.12 109.363 12.12ZM108.403 19.4C109.083 19.4 109.616 19.18 110.003 18.74C110.403 18.3 110.603 17.7533 110.603 17.1C110.603 16.4067 110.403 15.8667 110.003 15.48C109.603 15.08 109.069 14.88 108.403 14.88C107.723 14.88 107.176 15.08 106.763 15.48C106.363 15.88 106.163 16.4267 106.163 17.12C106.163 17.7867 106.369 18.3333 106.783 18.76C107.196 19.1867 107.736 19.4 108.403 19.4ZM121.577 22.18C120.417 22.18 119.37 21.94 118.437 21.46C117.504 20.98 116.77 20.3133 116.237 19.46C115.717 18.6067 115.457 17.64 115.457 16.56C115.457 15.4933 115.717 14.5333 116.237 13.68C116.77 12.8267 117.497 12.1667 118.417 11.7C119.35 11.22 120.404 10.98 121.577 10.98C122.75 10.98 123.804 11.22 124.737 11.7C125.67 12.1667 126.397 12.8267 126.917 13.68C127.437 14.52 127.697 15.48 127.697 16.56C127.697 17.64 127.437 18.6067 126.917 19.46C126.397 20.3133 125.67 20.98 124.737 21.46C123.804 21.94 122.75 22.18 121.577 22.18ZM121.577 19.16C122.244 19.16 122.79 18.9333 123.217 18.48C123.644 18.0133 123.857 17.3733 123.857 16.56C123.857 15.76 123.644 15.1333 123.217 14.68C122.79 14.2267 122.244 14 121.577 14C120.91 14 120.364 14.2267 119.937 14.68C119.51 15.1333 119.297 15.76 119.297 16.56C119.297 17.3733 119.51 18.0133 119.937 18.48C120.364 18.9333 120.91 19.16 121.577 19.16ZM139.859 11.16V22H136.079V18.14C135.279 18.5533 134.359 18.76 133.319 18.76C131.799 18.76 130.659 18.42 129.899 17.74C129.139 17.06 128.759 15.9867 128.759 14.52V11.16H132.559V14.26C132.559 14.86 132.693 15.2933 132.959 15.56C133.239 15.8133 133.653 15.94 134.199 15.94C134.893 15.94 135.519 15.7933 136.079 15.5V11.16H139.859ZM142.428 11.16H146.208V16.84L150.748 11.16H154.248V22H150.448V16.3L145.948 22H142.428V11.16ZM167.783 16.6C167.783 16.6267 167.763 16.94 167.723 17.54H159.843C160.003 18.1 160.31 18.5333 160.763 18.84C161.23 19.1333 161.81 19.28 162.503 19.28C163.023 19.28 163.47 19.2067 163.843 19.06C164.23 18.9133 164.617 18.6733 165.003 18.34L167.003 20.42C165.95 21.5933 164.41 22.18 162.383 22.18C161.117 22.18 160.003 21.94 159.043 21.46C158.083 20.98 157.337 20.3133 156.803 19.46C156.283 18.6067 156.023 17.64 156.023 16.56C156.023 15.4933 156.277 14.54 156.783 13.7C157.303 12.8467 158.017 12.18 158.923 11.7C159.83 11.22 160.85 10.98 161.983 10.98C163.063 10.98 164.043 11.2067 164.923 11.66C165.803 12.1 166.497 12.7467 167.003 13.6C167.523 14.44 167.783 15.44 167.783 16.6ZM162.003 13.68C161.417 13.68 160.923 13.8467 160.523 14.18C160.137 14.5133 159.89 14.9667 159.783 15.54H164.223C164.117 14.9667 163.863 14.5133 163.463 14.18C163.077 13.8467 162.59 13.68 162.003 13.68ZM93.1206 32.16V43H89.3406V35.18H85.7006V43H81.9206V32.16H93.1206ZM106.69 37.6C106.69 37.6267 106.67 37.94 106.63 38.54H98.7497C98.9097 39.1 99.2164 39.5333 99.6697 39.84C100.136 40.1333 100.716 40.28 101.41 40.28C101.93 40.28 102.376 40.2067 102.75 40.06C103.136 39.9133 103.523 39.6733 103.91 39.34L105.91 41.42C104.856 42.5933 103.316 43.18 101.29 43.18C100.023 43.18 98.9097 42.94 97.9497 42.46C96.9897 41.98 96.243 41.3133 95.7097 40.46C95.1897 39.6067 94.9297 38.64 94.9297 37.56C94.9297 36.4933 95.183 35.54 95.6897 34.7C96.2097 33.8467 96.923 33.18 97.8297 32.7C98.7364 32.22 99.7564 31.98 100.89 31.98C101.97 31.98 102.95 32.2067 103.83 32.66C104.71 33.1 105.403 33.7467 105.91 34.6C106.43 35.44 106.69 36.44 106.69 37.6ZM100.91 34.68C100.323 34.68 99.8297 34.8467 99.4297 35.18C99.043 35.5133 98.7964 35.9667 98.6897 36.54H103.13C103.023 35.9667 102.77 35.5133 102.37 35.18C101.983 34.8467 101.496 34.68 100.91 34.68ZM115.518 31.98C116.505 31.98 117.398 32.2133 118.198 32.68C119.011 33.1333 119.651 33.7867 120.118 34.64C120.598 35.48 120.838 36.46 120.838 37.58C120.838 38.7 120.598 39.6867 120.118 40.54C119.651 41.38 119.011 42.0333 118.198 42.5C117.398 42.9533 116.505 43.18 115.518 43.18C114.251 43.18 113.245 42.8 112.498 42.04V46.88H108.698V32.16H112.318V33.24C113.025 32.4 114.091 31.98 115.518 31.98ZM114.718 40.16C115.385 40.16 115.931 39.9333 116.358 39.48C116.785 39.0133 116.998 38.38 116.998 37.58C116.998 36.78 116.785 36.1533 116.358 35.7C115.931 35.2333 115.385 35 114.718 35C114.051 35 113.505 35.2333 113.078 35.7C112.651 36.1533 112.438 36.78 112.438 37.58C112.438 38.38 112.651 39.0133 113.078 39.48C113.505 39.9333 114.051 40.16 114.718 40.16ZM133.043 32.16V43H129.263V39.14C128.463 39.5533 127.543 39.76 126.503 39.76C124.983 39.76 123.843 39.42 123.083 38.74C122.323 38.06 121.943 36.9867 121.943 35.52V32.16H125.743V35.26C125.743 35.86 125.876 36.2933 126.143 36.56C126.423 36.8133 126.836 36.94 127.383 36.94C128.076 36.94 128.703 36.7933 129.263 36.5V32.16H133.043ZM140.032 31.98C141.832 31.98 143.205 32.3933 144.152 33.22C145.099 34.0333 145.572 35.2867 145.572 36.98V43H142.032V41.6C141.485 42.6533 140.419 43.18 138.832 43.18C137.992 43.18 137.265 43.0333 136.652 42.74C136.039 42.4467 135.572 42.0533 135.252 41.56C134.945 41.0533 134.792 40.48 134.792 39.84C134.792 38.8133 135.185 38.02 135.972 37.46C136.759 36.8867 137.972 36.6 139.612 36.6H141.772C141.705 35.4533 140.939 34.88 139.472 34.88C138.952 34.88 138.425 34.9667 137.892 35.14C137.359 35.3 136.905 35.5267 136.532 35.82L135.252 33.24C135.852 32.84 136.579 32.5333 137.432 32.32C138.299 32.0933 139.165 31.98 140.032 31.98ZM139.892 40.78C140.332 40.78 140.719 40.6733 141.052 40.46C141.385 40.2467 141.625 39.9333 141.772 39.52V38.58H140.132C139.025 38.58 138.472 38.9467 138.472 39.68C138.472 40.0133 138.599 40.28 138.852 40.48C139.105 40.68 139.452 40.78 139.892 40.78ZM157.538 35.18H154.058V43H150.278V35.18H146.778V32.16H157.538V35.18ZM164.09 39.14H162.81V43H159.01V32.16H162.81V36.16H164.17L166.83 32.16H170.85L167.21 37.36L171.09 43H166.61L164.09 39.14ZM172.35 32.16H176.13V37.84L180.67 32.16H184.17V43H180.37V37.3L175.87 43H172.35V32.16ZM83.1 60.96V66.24H79.58V64H72.76V66.24H69.22V60.96H69.62C70.2733 60.9467 70.7267 60.5933 70.98 59.9C71.2333 59.1933 71.3867 58.2067 71.44 56.94L71.58 53.16H81.6V60.96H83.1ZM74.86 57.22C74.82 58.1933 74.7467 58.9733 74.64 59.56C74.5333 60.1467 74.3333 60.6133 74.04 60.96H77.8V56.18H74.9L74.86 57.22ZM95.7731 53.16V64H91.9731V56.18H89.2331L89.1531 57.84C89.0998 59.2533 88.9598 60.42 88.7331 61.34C88.5065 62.26 88.1331 62.98 87.6131 63.5C87.0931 64.0067 86.3798 64.26 85.4731 64.26C85.0065 64.26 84.3931 64.1733 83.6331 64L83.7931 60.9C84.0331 60.9267 84.1931 60.94 84.2731 60.94C84.6865 60.94 84.9998 60.8067 85.2131 60.54C85.4265 60.2733 85.5731 59.92 85.6531 59.48C85.7331 59.0267 85.7865 58.4267 85.8131 57.68L85.9731 53.16H95.7731ZM108.527 53.16V64H105.147V61.06H103.427L101.507 64H97.4869L99.8869 60.54C99.1669 60.22 98.6135 59.7867 98.2269 59.24C97.8535 58.68 97.6669 58.0133 97.6669 57.24C97.6669 55.9467 98.1469 54.9467 99.1069 54.24C100.067 53.52 101.387 53.16 103.067 53.16H108.527ZM103.147 56.16C102.08 56.16 101.547 56.5667 101.547 57.38C101.547 57.8067 101.674 58.12 101.927 58.32C102.194 58.52 102.594 58.62 103.127 58.62H105.147V56.16H103.147ZM125.641 58.32C126.881 58.7333 127.501 59.5867 127.501 60.88C127.501 61.8533 127.121 62.62 126.361 63.18C125.601 63.7267 124.481 64 123.001 64H116.901V53.16H122.721C124.134 53.16 125.228 53.4067 126.001 53.9C126.788 54.3933 127.181 55.0867 127.181 55.98C127.181 56.5 127.048 56.96 126.781 57.36C126.514 57.76 126.134 58.08 125.641 58.32ZM120.301 57.52H122.381C123.261 57.52 123.701 57.1933 123.701 56.54C123.701 55.9133 123.261 55.6 122.381 55.6H120.301V57.52ZM122.661 61.54C123.581 61.54 124.041 61.2067 124.041 60.54C124.041 59.8733 123.594 59.54 122.701 59.54H120.301V61.54H122.661ZM134.861 64.18C133.661 64.18 132.587 63.94 131.641 63.46C130.694 62.98 129.954 62.3133 129.421 61.46C128.901 60.6067 128.641 59.64 128.641 58.56C128.641 57.48 128.901 56.52 129.421 55.68C129.954 54.8267 130.694 54.1667 131.641 53.7C132.587 53.22 133.661 52.98 134.861 52.98C136.087 52.98 137.147 53.2467 138.041 53.78C138.934 54.3 139.567 55.0267 139.941 55.96L137.001 57.46C136.507 56.4867 135.787 56 134.841 56C134.161 56 133.594 56.2267 133.141 56.68C132.701 57.1333 132.481 57.76 132.481 58.56C132.481 59.3733 132.701 60.0133 133.141 60.48C133.594 60.9333 134.161 61.16 134.841 61.16C135.787 61.16 136.507 60.6733 137.001 59.7L139.941 61.2C139.567 62.1333 138.934 62.8667 138.041 63.4C137.147 63.92 136.087 64.18 134.861 64.18ZM152.393 58.6C152.393 58.6267 152.373 58.94 152.333 59.54H144.453C144.613 60.1 144.919 60.5333 145.373 60.84C145.839 61.1333 146.419 61.28 147.113 61.28C147.633 61.28 148.079 61.2067 148.453 61.06C148.839 60.9133 149.226 60.6733 149.613 60.34L151.613 62.42C150.559 63.5933 149.019 64.18 146.993 64.18C145.726 64.18 144.613 63.94 143.653 63.46C142.693 62.98 141.946 62.3133 141.413 61.46C140.893 60.6067 140.633 59.64 140.633 58.56C140.633 57.4933 140.886 56.54 141.393 55.7C141.913 54.8467 142.626 54.18 143.533 53.7C144.439 53.22 145.459 52.98 146.593 52.98C147.673 52.98 148.653 53.2067 149.533 53.66C150.413 54.1 151.106 54.7467 151.613 55.6C152.133 56.44 152.393 57.44 152.393 58.6ZM146.613 55.68C146.026 55.68 145.533 55.8467 145.133 56.18C144.746 56.5133 144.499 56.9667 144.393 57.54H148.833C148.726 56.9667 148.473 56.5133 148.073 56.18C147.686 55.8467 147.199 55.68 146.613 55.68ZM160.968 64L159.028 61.16L156.948 64H152.828L156.948 58.58L152.948 53.16H157.228L159.148 55.9L161.148 53.16H165.168L161.168 58.44L165.308 64H160.968Z" fill="white"/>
<path fill-rule="evenodd" clip-rule="evenodd" d="M63.29 26.4555C63.18 25.6955 62.73 25.0455 62.06 24.6755C59.4 23.2255 56.07 23.5855 53.78 25.5755L48.87 29.8355L53.44 9.28552C53.67 8.24552 53.48 7.18552 52.92 6.29552C52.36 5.39552 51.47 4.77552 50.43 4.54552C49.7 4.38552 48.98 4.43552 48.31 4.65552C48.48 3.67552 48.29 2.67552 47.75 1.84552C47.19 0.945517 46.3 0.325517 45.26 0.0955166C44.22 -0.134483 43.16 0.0555166 42.27 0.615517C41.43 1.15552 40.83 1.96552 40.57 2.92552C40.06 2.43552 39.42 2.09552 38.7 1.93552C37.66 1.70552 36.6 1.89552 35.71 2.45552C34.81 3.02552 34.2 3.90552 33.97 4.94552L33.2 8.38552C32.7 7.91552 32.09 7.57552 31.41 7.41552C30.4 7.17552 29.35 7.34552 28.44 7.91552C27.59 8.44552 26.98 9.26552 26.68 10.2055V7.35552C26.68 6.29552 26.27 5.29552 25.52 4.55552C24.77 3.80552 23.78 3.38552 22.71 3.38552C21.96 3.38552 21.27 3.59552 20.67 3.95552C20.63 2.95552 20.22 2.02552 19.51 1.32552C18.76 0.575517 17.77 0.155517 16.7 0.155517C14.57 0.155517 12.83 1.83552 12.73 3.94552C12.12 3.57552 11.42 3.38552 10.69 3.38552C8.50002 3.38552 6.72002 5.16552 6.72002 7.35552V10.8855C6.13002 10.5355 5.46002 10.3355 4.76002 10.3255C3.73002 10.3155 2.73002 10.7055 1.96002 11.4555C1.16002 12.2355 0.710022 13.3155 0.710022 14.4255V35.0255C0.710022 37.3455 1.17002 39.6155 2.08002 41.7755L3.65002 45.4655C4.46002 47.3755 4.87002 49.3855 4.87002 51.4555V62.4355C4.87002 62.9655 5.30002 63.4055 5.84002 63.4055H25.72C26.25 63.4055 26.69 62.9755 26.69 62.4355V60.7555L40.35 63.7955C40.42 63.8155 40.49 63.8155 40.56 63.8155C41 63.8155 41.4 63.5055 41.5 63.0555L43.01 56.2755C43.49 54.1255 44.41 52.1555 45.76 50.4155C48.69 46.6255 53.84 39.7955 55.4 36.6955C56.03 35.4455 56.84 34.3255 57.79 33.3655L62.62 28.5355C63.15 27.9855 63.4 27.2255 63.29 26.4555ZM35.84 5.37552C35.96 4.84552 36.28 4.39552 36.73 4.10552C37.19 3.81552 37.73 3.71552 38.27 3.83552C38.8 3.95552 39.25 4.26552 39.54 4.73552C39.83 5.18552 39.93 5.72552 39.81 6.25552L36.7 20.2455C35.11 20.1855 33.55 20.6255 32.24 21.5255L34.33 12.1455V12.1355L35.84 5.37552ZM28.43 10.9655L26.74 18.5755C26.73 18.6455 26.69 18.7055 26.65 18.7655V28.4055L29.62 24.3955L32.44 11.7255C32.56 11.1955 32.46 10.6555 32.17 10.1955C31.88 9.74552 31.44 9.42552 30.93 9.30552C30.43 9.18552 29.9 9.27552 29.43 9.56552C28.92 9.88552 28.56 10.3955 28.43 10.9655ZM3.84002 41.0155C3.03002 39.0955 2.62002 37.0855 2.62002 35.0255V14.4255C2.62002 13.8355 2.87002 13.2555 3.29002 12.8355C3.68002 12.4555 4.18002 12.2355 4.69002 12.2555C5.22002 12.2655 5.72002 12.4755 6.09002 12.8555C6.48002 13.2455 6.69002 13.7555 6.69002 14.2955V24.4755C6.69002 25.0055 7.12002 25.4455 7.66002 25.4455C8.20002 25.4455 8.63002 25.0155 8.63002 24.4755V14.2855V7.35552C8.63002 6.23552 9.54002 5.32552 10.67 5.32552C11.21 5.32552 11.72 5.53552 12.11 5.92552C12.49 6.30552 12.7 6.81552 12.7 7.35552V23.2855C12.7 23.8155 13.13 24.2555 13.67 24.2555C14.21 24.2555 14.64 23.8255 14.64 23.2855V7.35552V4.12552C14.64 3.00552 15.55 2.08552 16.68 2.08552C17.23 2.08552 17.74 2.29552 18.12 2.68552C18.5 3.06552 18.71 3.57552 18.71 4.12552V7.34552V21.7455C18.71 22.2755 19.14 22.7155 19.68 22.7155C20.21 22.7155 20.65 22.2855 20.65 21.7455V7.35552C20.65 6.23552 21.56 5.32552 22.69 5.32552C23.24 5.32552 23.75 5.53552 24.13 5.92552C24.51 6.30552 24.72 6.81552 24.72 7.35552V31.3455C24.72 31.7655 24.99 32.1355 25.38 32.2655C25.77 32.3955 26.21 32.2555 26.46 31.9255L32.07 24.3455C33.4 22.5455 35.73 21.7555 37.87 22.3755C38.07 22.4355 38.16 22.5855 38.19 22.6755C38.22 22.7455 38.27 22.9355 38.14 23.1255L34.47 28.8855C33.63 30.1955 33.01 31.6555 32.61 33.2155C31.8 36.4355 28.31 44.0855 26.3 48.3655C25.85 49.3155 25.51 50.3255 25.25 51.3555C25.245 51.3705 25.2375 51.383 25.23 51.3955C25.2225 51.408 25.215 51.4205 25.21 51.4355C25.2034 51.4488 25.2056 51.4622 25.2078 51.4755L25.2078 51.4755C25.2089 51.4822 25.21 51.4889 25.21 51.4955C25.08 52.0355 24.98 52.5855 24.9 53.1355H6.78002V51.4555C6.78002 49.1355 6.32002 46.8655 5.41002 44.7155L3.84002 41.0155ZM6.78002 61.4655H24.73V55.4855C24.73 55.4155 24.735 55.343 24.74 55.2705C24.745 55.198 24.75 55.1255 24.75 55.0555H6.78002V61.4655ZM39.8 61.6855L26.66 58.7655V55.4855C26.66 54.5955 26.76 53.6955 26.92 52.8155L41.02 56.1755L39.8 61.6855ZM56.4 31.9955L61.23 27.1655C61.3815 27.014 61.3806 26.8266 61.3801 26.7222C61.3801 26.7164 61.38 26.7108 61.38 26.7055C61.36 26.6155 61.31 26.4455 61.13 26.3455C59.17 25.2755 56.73 25.5455 55.04 27.0055L47.92 33.1955C47.6 33.4655 47.15 33.5055 46.79 33.2955C46.43 33.0855 46.25 32.6655 46.34 32.2555L51.55 8.83552C51.67 8.30552 51.57 7.75552 51.28 7.30552C50.99 6.84552 50.54 6.52552 50 6.40552C48.91 6.16552 47.82 6.85552 47.57 7.94552V7.95552L44.44 22.0055C44.34 22.4555 43.94 22.7655 43.5 22.7655C43.43 22.7655 43.36 22.7655 43.29 22.7455C42.77 22.6355 42.44 22.1155 42.56 21.5955L45.69 7.54552L46.39 4.40552C46.51 3.87552 46.41 3.32552 46.12 2.87552C45.83 2.41552 45.38 2.09552 44.84 1.97552C44.3 1.85552 43.76 1.95552 43.3 2.24552C42.84 2.53552 42.52 2.99552 42.4 3.52552L41.7 6.66552V6.67552L38.61 20.5655C39.25 20.8155 39.75 21.3055 40 21.9555C40.28 22.6855 40.2 23.4755 39.78 24.1355L36.11 29.8955C35.39 31.0355 34.85 32.3055 34.5 33.6655C33.65 37.0355 30.11 44.8155 28.07 49.1555C27.8 49.7255 27.58 50.3255 27.39 50.9255L41.53 54.2955C42.12 52.4655 43.01 50.7655 44.2 49.2255C47.09 45.4955 52.15 38.7755 53.65 35.8155C54.37 34.3855 55.3 33.0955 56.4 31.9955Z" fill="#E05959"/>
</g>
<defs>
<clipPath id="clip0_0_224">
<rect width="185.29" height="67" fill="white" transform="translate(0.710022)"/>
</clipPath>
</defs>
</svg>
