<svg width="22" height="31" viewBox="0 0 22 31" fill="none" xmlns="http://www.w3.org/2000/svg">
<path fill-rule="evenodd" clip-rule="evenodd" d="M20.1253 19.5082C18.9899 17.4343 16.39 16.7286 14.3621 17.9569L13.5923 18.4199C13.5923 18.4199 12.5818 16.7388 11.7836 14.8769C10.9855 13.015 10.391 10.9522 10.391 10.9522L11.263 10.4214C13.2436 9.22186 13.924 6.63158 12.8149 4.58432L11.4711 2.16007C10.3389 0.091985 7.74715 -0.618325 5.71818 0.588609L2.77584 2.37647C-0.541236 4.39754 0.0332952 11.0991 4.46742 19.1674C8.94983 27.2964 13.5656 31.6223 16.9842 29.5518C17.0115 29.5333 17.0368 29.5161 17.0608 29.4997C17.1405 29.4455 17.2062 29.4008 17.2841 29.3502C17.3649 29.3107 17.3923 29.2975 17.4297 29.2803L17.5788 29.201L19.9149 27.785C21.8995 26.5615 22.5767 23.9768 21.4621 21.9197L20.1253 19.5082ZM15.9135 20.5251C16.4804 20.1817 17.1761 20.3705 17.4963 20.9553L18.8328 23.3663C19.1813 24.0161 18.962 24.8477 18.3491 25.2256L16.0906 26.5945C16.0556 26.6112 16.0173 26.6298 15.9661 26.6548C15.8854 26.6943 15.858 26.7074 15.8206 26.7247L15.6279 26.8136L15.4675 26.9524C15.4534 26.9646 15.4307 26.9813 15.3522 27.0356C14.3169 27.6594 10.7294 24.3088 7.09688 17.7211C5.397 14.628 4.93785 12.3169 4.45089 9.86577C4.39479 9.58338 4.33832 9.29913 4.27954 9.01162C3.79526 6.64285 3.97664 5.15831 4.33638 4.93913L7.26509 3.15947C7.81995 2.82949 8.52157 3.02178 8.8421 3.60726L10.1828 6.02571C10.5275 6.66219 10.3098 7.49095 9.70496 7.85729L7.74417 9.05072L6.6739 9.70214L7.12421 10.871C7.12421 10.871 7.97735 13.7912 9.15501 16.3248C10.3327 18.8583 11.978 21.3131 11.978 21.3131L12.7901 22.4038L15.9135 20.5251Z" fill="white"/>
</svg>
